<?xml version="1.0" encoding="utf-8"?>
<!-- Generator: Adobe Illustrator 23.0.2, SVG Export Plug-In . SVG Version: 6.00 Build 0)  -->
<svg version="1.1" id="Camada_1" xmlns="http://www.w3.org/2000/svg" xmlns:xlink="http://www.w3.org/1999/xlink" x="0px" y="0px"
	 viewBox="0 0 1366 768" style="enable-background:new 0 0 1366 768;" xml:space="preserve">
<style type="text/css">
	.st0{fill:#3ACCDB;}
</style>
<path id="Caminho_1" class="st0" d="M1366,350.08c-106.13-13.42-164.94,26.03-212.92,34.11c-63.2,10.64-134.62,20.46-174.94-15.26
	c-30.3-26.84-33-77.21-87.7-116.13c-21.69-15.43-100.84,0.77-118.23-11.34c-59.52-41.45-34.14-76.77-82.97-92.46
	c-43.69-14.04-76.48-10.71-115.37-1.83C516.47,160.28,445.8,185.75,306.39,184c-19.05-0.24-83.97-13.47-128.52-34.35
	C112.1,118.82,42.45,144.48,0,142.19V0h1366V350.08L1366,350.08"/>
</svg>
