<?xml version="1.0" encoding="utf-8"?>
<!-- Generator: Adobe Illustrator 23.0.2, SVG Export Plug-In . SVG Version: 6.00 Build 0)  -->
<svg version="1.1" id="Camada_1" xmlns="http://www.w3.org/2000/svg" xmlns:xlink="http://www.w3.org/1999/xlink" x="0px" y="0px"
	 viewBox="0 0 878 660" style="enable-background:new 0 0 878 660;" xml:space="preserve">
<style type="text/css">
	.st0{fill:#0F2868;}
	.st1{fill:#6CC7EF;}
	.st2{fill:#212056;}
	.st3{fill:#B9C2F5;stroke:#0F2868;stroke-width:5;stroke-miterlimit:10;}
	.st4{fill:#313180;}
	.st5{opacity:0.54;fill:#191941;}
	.st6{fill:#B9C2F5;}
	.st7{fill:#FFFFFF;}
	.st8{fill:#6177FF;}
	.st9{fill:#191841;}
	.st10{fill:#20110C;}
	.st11{fill:#DC7A63;}
	.st12{opacity:0.65;fill:#F26E5A;}
	.st13{fill:#FFDDD7;}
	.st14{fill:#FFD4CD;}
	.st15{fill:#407FFE;}
	.st16{fill:#341FCB;}
	.st17{opacity:0.4;fill:#407FFE;}
	.st18{fill:#271798;}
	.st19{fill:#F26E5A;}
	.st20{fill:#E3E7FB;stroke:#0F2868;stroke-width:5;stroke-miterlimit:10;}
	.st21{fill:#212157;}
	.st22{opacity:0.35;fill:#FED6FD;}
	.st23{fill:#DBD4E5;}
	.st24{opacity:0.9;fill:#E8E574;}
	.st25{opacity:0.2;fill:#221C40;}
	.st26{fill:#FCCABE;}
	.st27{fill:#F99662;}
	.st28{fill:#6CA1F4;}
	.st29{opacity:0.61;fill:#B3CBB1;}
	.st30{opacity:0.65;fill:#FCCABE;}
	.st31{fill:#C26B57;}
	.st32{fill:#FFEEEB;}
	.st33{fill:#A5A1C1;}
	.st34{fill:#FCFCFC;}
	.st35{fill:#DC836E;}
	.st36{fill:#EDE9F2;}
	.st37{fill:#11102B;}
	.st38{fill:#D0BBA8;}
	.st39{fill:#E8DDD4;}
	.st40{opacity:0.29;fill:#CB906D;}
	.st41{fill:#2257F8;}
	.st42{fill:#7A9AFB;}
	.st43{fill:#5C73BC;}
	.st44{fill:#B3CCFF;}
	.st45{fill:#1B1464;}
	.st46{opacity:0.4;fill:#F26E5A;}
	.st47{fill:#BDBDC6;}
	.st48{fill:#95AEFC;}
	.st49{fill:#F15A24;}
	.st50{fill:#C1272D;}
	.st51{fill:#735245;}
	.st52{opacity:0.35;fill:#EFEFEF;}
</style>
<g>
	<g>
		<g>
			<path class="st0" d="M274.61,165.58h-39.2v-20.4h23.47c0.35,0,0.63-0.27,0.63-0.6c0-0.33-0.28-0.6-0.63-0.6h-67.2
				c-0.35,0-0.63,0.27-0.63,0.6c0,0.33,0.28,0.6,0.63,0.6h42.48v20.4h-26.75c-0.35,0-0.63,0.27-0.63,0.6c0,0.33,0.28,0.6,0.63,0.6
				h42.48v20.74c0,0.33,0.28,0.6,0.63,0.6c0.35,0,0.63-0.27,0.63-0.6v-20.74h23.47c0.35,0,0.63-0.27,0.63-0.6
				C275.24,165.85,274.96,165.58,274.61,165.58z"/>
			<path class="st0" d="M412.02,304.45c0,0.01,0,0.02,0,0.03h-30c-0.35,0-0.63,0.27-0.63,0.6c0,0.33,0.28,0.6,0.63,0.6h42.48v20.74
				c0,0.33,0.28,0.6,0.63,0.6c0.35,0,0.63-0.27,0.63-0.6v-20.74h23.47c0.35,0,0.63-0.27,0.63-0.6c0-0.33-0.28-0.6-0.63-0.6h-35.95
				c0-0.01,0-0.02,0-0.03v-20.74h23.47c0.35,0,0.63-0.27,0.63-0.6c0-0.33-0.28-0.6-0.63-0.6h-45.82v-22.36h23.47
				c0.35,0,0.63-0.27,0.63-0.6c0-0.33-0.28-0.6-0.63-0.6h-67.2c-0.35,0-0.63,0.27-0.63,0.6c0,0.33,0.28,0.6,0.63,0.6h42.48v22.36
				h-20.13c-0.35,0-0.63,0.27-0.63,0.6c0,0.33,0.28,0.6,0.63,0.6h42.48V304.45z"/>
			<path class="st0" d="M608.77,163.51c0,0.01,0,0.02,0,0.03h-30c-0.35,0-0.63,0.27-0.63,0.6c0,0.33,0.28,0.6,0.63,0.6h42.48v20.74
				c0,0.33,0.28,0.6,0.63,0.6c0.35,0,0.63-0.27,0.63-0.6v-20.74h23.47c0.35,0,0.63-0.27,0.63-0.6c0-0.33-0.28-0.6-0.63-0.6h-35.95
				c0-0.01,0-0.02,0-0.03v-20.74h23.47c0.35,0,0.63-0.27,0.63-0.6s-0.28-0.6-0.63-0.6h-45.82v-22.36h23.47
				c0.35,0,0.63-0.27,0.63-0.6c0-0.33-0.28-0.6-0.63-0.6h-67.2c-0.35,0-0.63,0.27-0.63,0.6c0,0.33,0.28,0.6,0.63,0.6h42.48v22.36
				H566.3c-0.35,0-0.63,0.27-0.63,0.6s0.28,0.6,0.63,0.6h42.48V163.51z"/>
			<path class="st0" d="M274.61,558.13h-35.95c0-0.01,0-0.02,0-0.03v-20.74h23.47c0.35,0,0.63-0.27,0.63-0.6
				c0-0.33-0.28-0.6-0.63-0.6h-45.82v-22.36h23.47c0.35,0,0.63-0.27,0.63-0.6c0-0.33-0.28-0.6-0.63-0.6h-67.2
				c-0.35,0-0.63,0.27-0.63,0.6c0,0.33,0.28,0.6,0.63,0.6h42.48v22.36h-20.13c-0.35,0-0.63,0.27-0.63,0.6c0,0.33,0.28,0.6,0.63,0.6
				h42.48v20.74c0,0.01,0,0.02,0,0.03h-30c-0.35,0-0.63,0.27-0.63,0.6c0,0.33,0.28,0.6,0.63,0.6h42.48v20.74
				c0,0.33,0.28,0.6,0.63,0.6c0.35,0,0.63-0.27,0.63-0.6v-20.74h23.47c0.35,0,0.63-0.27,0.63-0.6
				C275.24,558.4,274.96,558.13,274.61,558.13z"/>
			<g>
				<path class="st1" d="M214.54,333.1C214.44,333.1,214.63,333.14,214.54,333.1L214.54,333.1z"/>
				<path class="st0" d="M249.37,377.44h-35.95c0-0.01,0-0.02,0-0.03v-20.74h23.47c0.35,0,0.63-0.27,0.63-0.6
					c0-0.33-0.28-0.6-0.63-0.6h-45.82V333.1h23.47c0.62,0,0.9-0.21,0.9-0.54v-20.74h23.47c0.35,0,0.63-0.27,0.63-0.6
					c0-0.33-0.28-0.6-0.63-0.6h-39.2v-20.4h23.47c0.35,0,0.63-0.27,0.63-0.6s-0.28-0.6-0.63-0.6h-67.2c-0.35,0-0.63,0.27-0.63,0.6
					s0.28,0.6,0.63,0.6h42.48v20.4h-26.75c-0.35,0-0.63,0.27-0.63,0.6c0,0.33,0.28,0.6,0.63,0.6h42.48v20.08h-66.85
					c-0.35,0-0.63,0.27-0.63,0.6c0,0.33,0.28,0.6,0.63,0.6h42.48v22.36h-20.13c-0.35,0-0.63,0.27-0.63,0.6c0,0.33,0.28,0.6,0.63,0.6
					h42.48v20.74c0,0.01,0,0.02,0,0.03h-30c-0.35,0-0.63,0.27-0.63,0.6c0,0.33,0.28,0.6,0.63,0.6h42.48v20.74
					c0,0.33,0.28,0.6,0.63,0.6s0.63-0.27,0.63-0.6v-20.74h23.47c0.35,0,0.63-0.27,0.63-0.6C250,377.71,249.72,377.44,249.37,377.44z
					"/>
			</g>
			<path class="st0" d="M460.82,507.49h-67.2c-0.35,0-0.63,0.27-0.63,0.6c0,0.33,0.28,0.6,0.63,0.6h42.48v20.74
				c0,0.33,0.28,0.6,0.63,0.6c0.35,0,0.63-0.27,0.63-0.6v-20.74h23.47c0.35,0,0.63-0.27,0.63-0.6
				C461.45,507.76,461.17,507.49,460.82,507.49z"/>
			<path class="st0" d="M397.61,408.55c0,0.33,0.28,0.6,0.63,0.6c0.35,0,0.63-0.27,0.63-0.6v-20.74h23.47c0.35,0,0.63-0.27,0.63-0.6
				s-0.28-0.6-0.63-0.6h-67.2c-0.35,0-0.63,0.27-0.63,0.6s0.28,0.6,0.63,0.6h42.48V408.55z"/>
			<path class="st0" d="M621.66,348.34h-39.2v-20.4h23.47c0.35,0,0.63-0.27,0.63-0.6c0-0.33-0.28-0.6-0.63-0.6h-67.2
				c-0.35,0-0.63,0.27-0.63,0.6c0,0.33,0.28,0.6,0.63,0.6h42.48v20.4h-26.75c-0.35,0-0.63,0.27-0.63,0.6c0,0.33,0.28,0.6,0.63,0.6
				h42.48v20.74c0,0.33,0.28,0.6,0.63,0.6c0.35,0,0.63-0.27,0.63-0.6v-20.74h23.47c0.35,0,0.63-0.27,0.63-0.6
				C622.29,348.61,622.01,348.34,621.66,348.34z"/>
		</g>
	</g>
	<g>
		<path class="st2" d="M362.46,323.88H265.1c-4.01,0-7.26-3.25-7.26-7.26l0,0h111.87l0,0C369.71,320.63,366.46,323.88,362.46,323.88
			z"/>
		<rect x="259.68" y="149.28" class="st3" width="108.63" height="161.71"/>
		<rect x="263.17" y="152.53" class="st4" width="102.73" height="158.46"/>
		<path class="st5" d="M263.17,152.53V311h11.96c-1.62-40.65-2.63-110.26,8.15-130.23c10.24-18.96,49.45-25.78,74.95-28.24H263.17z"
			/>
		<rect x="263.17" y="189.29" class="st6" width="102.73" height="4.62"/>
		<rect x="310.62" y="152.53" class="st6" width="5.17" height="36.76"/>
		<rect x="311.87" y="152.53" class="st7" width="2.66" height="36.76"/>
		<path class="st8" d="M376.66,316.63H251.11c-2.35,0-4.25-1.9-4.25-4.25v-1.26c0-2.35,1.9-4.25,4.25-4.25h125.56
			c2.35,0,4.25,1.9,4.25,4.25v1.26C380.91,314.72,379.01,316.63,376.66,316.63z"/>
		<path class="st6" d="M377.21,306.86H250.56c-2.05,0-3.71,1.66-3.71,3.71v2.35c0,0.31,0.04,0.61,0.11,0.89
			c0.4-1.62,1.86-2.81,3.6-2.81h126.64c1.74,0,3.2,1.2,3.6,2.81c0.07-0.29,0.11-0.58,0.11-0.89v-2.35
			C380.91,308.52,379.25,306.86,377.21,306.86z"/>
		<path class="st2" d="M362.46,323.88H265.1c-4.01,0-7.26-3.25-7.26-7.26l0,0h111.87l0,0C369.71,320.63,366.46,323.88,362.46,323.88
			z"/>
		<path class="st9" d="M325.75,318.29c15.9,0,30.78,0.33,43.49,0.92c0.3-0.8,0.47-1.67,0.47-2.58l0,0H257.84l0,0
			c0,1.54,0.48,2.96,1.29,4.13C274.64,319.25,298.72,318.29,325.75,318.29z"/>
		<rect x="263.17" y="187.24" class="st7" width="102.73" height="2.06"/>
		<g>
			<path class="st10" d="M316.49,205.13c0,0-9.99-2.57-11.18,8.06c-1.19,10.63,4.22,12.28,1.28,17.41
				c-2.93,5.13-6.23,1.28-6.87,15.85c-0.64,14.57,35.73,22.81,41.5,11.91c5.77-10.9,11.36-6.01,16.12-8.06
				c8.57-3.69,6.94-22.41-4.51-21.4c-11.45,1.01-16.89,1.6-15.52-7.01c1.37-8.61-2.55-15.92-7.77-19.04
				C324.33,199.73,317.68,199.73,316.49,205.13z"/>
			<path class="st11" d="M355.08,304.18c0.27-0.18,3.26,2.54,3.75,2.49c0.49-0.05,0.43-0.49,0.3-0.88c0,0-3.69-3.59-5.56-4.22
				c-1.87-0.64-5.58,0.81-6.18-0.08c-0.55-0.8-12.23-54.88-12.23-54.88l-8.73,5.66c0,0,5.56,22.31,6.25,25.12
				c1.09,4.42,8.98,23.67,9.12,25.52c0.14,1.85,0.38,2.62,2.95,3.94c2.57,1.32,5.76,2.27,6.35,1.22c0.59-1.05-2.45-1.08-2.34-1.67
				c0.11-0.59,2.81-1.08,3.96-0.16c1.15,0.92,3.85,4.39,4.67,3.57c0.82-0.82-3.4-4.28-3.19-4.41c0.2-0.14,3.57,3.32,4.18,3.29
				c0.61-0.03,0.73-0.82,0.06-1.45C357.77,306.62,354.81,304.36,355.08,304.18z"/>
			<path class="st12" d="M332.12,255.07c-0.2-1.51,0.13-3.92-0.27-6.32l-5.42,3.52c0,0,5.56,22.31,6.25,25.12
				c1.09,4.42,8.98,23.67,9.12,25.52c0.02,0.29,0.05,0.56,0.08,0.81h0c0,0,1.27-2.15,0-6.75c-0.79-2.85-5.83-17.68-8.26-29.02
				C332.13,261,332.12,255.08,332.12,255.07z"/>
			<path class="st13" d="M325.18,234c0,0,4.07,1.11,7.51,4.56c3.45,3.45,4.62,14.41,4.62,14.41s0.5,1.65-9.24,2.64
				C318.34,256.6,325.18,234,325.18,234z"/>
			<path class="st14" d="M325.18,234c0,0,0,0,0.01,0c1.11,0.34,4.33,1.57,4.7,4.55c0,0,2.52,11.78,2.77,16.42
				c-1.2,0.22-2.7,0.44-4.58,0.63C318.34,256.6,325.18,234,325.18,234z"/>
			<g>
				<path class="st15" d="M321.89,269.31c0,0,3.8,11.03,4.46,19.32c0.66,8.29,0.82,18.24,0.82,18.24h-37.22c0,0,0.17-9.78,0.5-20.48
					c0.33-10.69,9.99-17.99,9.99-17.99L321.89,269.31z"/>
				<path class="st16" d="M294.4,283.87c0.47-1.93,2.74-8.38,4.99-14.59c-2.51,2.24-8.68,8.6-8.94,17.11
					c-0.17,5.46-0.29,10.67-0.38,14.48C291.76,294.16,293.74,286.57,294.4,283.87z"/>
				<path class="st17" d="M321.89,269.31c0,0,0.23,0.67,0.59,1.81c-5.84,2.38-22.72,4.44-27.3,2.76c2.58-3.46,5.25-5.48,5.25-5.48
					L321.89,269.31z"/>
				<path class="st18" d="M311.72,287.85c0.06-0.03,1.98-0.49,6.83-3.52c0.42-0.26,0.81,0.37,0.39,0.63
					c-0.17,0.11-4.17,2.6-6.54,3.44l-2.03,18.46h-0.5C309.89,305.86,310.28,302.09,311.72,287.85z"/>
			</g>
			<path class="st13" d="M329.89,238.56c0,0,1.07,7.8,1.07,11.85c0,4.05-5.38,18.34-6.77,19.73c-2.91,2.91-21.83,1.77-24.68-1.07
				c-2.85-2.85-3.84-30.08-0.41-33.51c3.43-3.43,11.22-3.12,11.22-3.12l14.49,1.47C324.82,233.9,329.44,234.94,329.89,238.56z"/>
			<path class="st14" d="M303.54,233.48c-1.37,0.04-2.04,0.78-2.77,1.92c-2.46,3.86-3.74,8.34-3.82,12.91
				c-0.15,8.72,0.87,18.88,2.53,20.7c0.13-0.34,0.25-0.69,0.37-1.03c1.39-3.81,2.6-8.31,5.44-11.21c1.78-1.81,3.34-15.01,3.23-18.44
				C308.43,235.64,306.23,233.4,303.54,233.48z"/>
			<path class="st19" d="M322.09,222.92c0,0-0.45,7.22,0,8.87c0.45,1.65,2.72,2.1,2.72,2.1s2.27,7.39-4.46,9.7
				c-6.73,2.31-10.04-11.17-10.04-11.17s1.84,0.1,2.24-0.02c1.68-0.49,2.28-13.76,2.28-13.76L322.09,222.92z"/>
			<path class="st12" d="M314.84,218.65c0,0-0.04,0.97-0.14,2.39c1.52,5.97,4.79,9.4,7.28,10.09c-0.25-2.38,0.11-8.21,0.11-8.21
				L314.84,218.65z"/>
			<path class="st11" d="M300.42,253.62l-11.57-3.56c0,0-7.08,19.66-7.08,22.56c0,1.57-1.58,29.1-2.06,29.8
				c-0.6,0.89-4.31-0.56-6.18,0.08c-1.87,0.63-5.56,4.22-5.56,4.22c-0.13,0.39-0.19,0.83,0.3,0.88c0.49,0.05,3.48-2.67,3.75-2.49
				c0.27,0.18-2.69,2.44-3.36,3.06c-0.67,0.63-0.56,1.42,0.06,1.45c0.61,0.03,3.98-3.43,4.18-3.29c0.2,0.14-4.02,3.59-3.19,4.41
				c0.82,0.82,3.51-2.65,4.67-3.57c1.15-0.92,3.85-0.43,3.96,0.16c0.11,0.59-2.93,0.62-2.34,1.67c0.59,1.05,3.78,0.1,6.35-1.22
				c2.57-1.32,2.81-2.09,2.95-3.94c0.14-1.85,5.21-20.99,6.3-25.4C292.48,274.83,300.42,253.62,300.42,253.62z"/>
			<path class="st13" d="M302.63,233.5c2.61-0.28,4.34,2.9,4.07,5.52c-0.52,4.97-2.92,12.63-3.8,15.63
				c-1.32,4.54-16.42-2.35-15.1-6.23C289.12,244.55,297.95,234,302.63,233.5z"/>
			<path class="st19" d="M313.85,213.45c0,0,1.3-5.18,5.24-6.64c3.94-1.46,7.49-0.22,8.73,4.92c1.24,5.13-0.9,13.18-3.33,15.61
				C322.06,229.76,314.12,224.85,313.85,213.45z"/>
			<path class="st7" d="M328.19,217.09c-0.39,4.22-1.93,8.57-3.6,10.24c-2.16,2.16-8.64-1.46-10.27-10.24H328.19z"/>
			<path class="st19" d="M314.99,215.12c0,0-1.89-3.08-3.13-1.35c-1.24,1.73-0.27,5.94,2,6.21
				C316.12,220.26,314.99,215.12,314.99,215.12z"/>
		</g>
	</g>
	<g>
		<g>
			<rect x="462.22" y="141.4" class="st20" width="121.28" height="172.77"/>
			<path class="st2" d="M570.22,327.05h-97.35c-4.01,0-7.26-3.25-7.26-7.26l0,0h111.87l0,0
				C577.47,323.8,574.23,327.05,570.22,327.05z"/>
			<rect x="467.44" y="155.7" class="st6" width="108.63" height="158.46"/>
			<rect x="470.93" y="155.7" class="st21" width="102.73" height="158.46"/>
			<g>
				<path class="st22" d="M573.66,305.75v-4.62c-0.58,1.3-1.21,2.64-1.9,4.02C571.76,305.15,572.43,305.4,573.66,305.75z"/>
				<path class="st22" d="M569.64,263.78c0,0,1.93,0.77,4.02,2.92V158.03c-0.02-0.77-0.02-1.54,0-2.33h-83.22
					C490.44,155.7,507.55,233.12,569.64,263.78z"/>
			</g>
			<rect x="565.63" y="155.7" class="st23" width="8.03" height="159.21"/>
			<path class="st5" d="M470.93,155.7v158.46h11.96c-1.62-40.65-2.63-110.26,8.15-130.23c10.24-18.96,49.45-25.78,74.95-28.24
				H470.93z"/>
			<rect x="470.93" y="192.47" class="st6" width="102.73" height="4.62"/>
			<rect x="518.38" y="155.7" class="st6" width="5.17" height="36.76"/>
			<rect x="519.64" y="155.7" class="st7" width="2.66" height="36.76"/>
			<path class="st8" d="M584.43,319.8H458.87c-2.35,0-4.25-1.9-4.25-4.25v-1.26c0-2.35,1.9-4.25,4.25-4.25h125.56
				c2.35,0,4.25,1.9,4.25,4.25v1.26C588.68,317.89,586.77,319.8,584.43,319.8z"/>
			<path class="st6" d="M584.97,310.03H458.33c-2.05,0-3.71,1.66-3.71,3.71v2.35c0,0.31,0.04,0.61,0.11,0.89
				c0.4-1.62,1.86-2.81,3.6-2.81h126.64c1.74,0,3.2,1.2,3.6,2.81c0.07-0.29,0.11-0.58,0.11-0.89v-2.35
				C588.68,311.69,587.02,310.03,584.97,310.03z"/>
			<path class="st2" d="M570.22,327.05h-97.35c-4.01,0-7.26-3.25-7.26-7.26l0,0h111.87l0,0
				C577.47,323.8,574.23,327.05,570.22,327.05z"/>
			<path class="st9" d="M533.51,321.46c15.9,0,30.78,0.33,43.49,0.92c0.3-0.8,0.47-1.67,0.47-2.58l0,0H465.61l0,0
				c0,1.53,0.48,2.96,1.29,4.13C482.41,322.42,506.48,321.46,533.51,321.46z"/>
			<rect x="470.93" y="190.41" class="st7" width="102.73" height="2.06"/>
			<g>
				<path class="st24" d="M515.39,200.65c0,0-2.53-0.17-6.04,3.33c-3.5,3.5-2.32,15.15-6.54,16.84c-4.22,1.69-3.88,6.16-0.84,8.02
					c3.04,1.86,0.34,3.21,4.14,7.98c3.8,4.77,22.39,11.3,25.42,5.18c3.04-6.12,4.57-4.79,8.24-6.69c3.67-1.9,3.64-11.45-3.74-16.09
					c-7.39-4.64-3.92-10.04-8.31-15.11C523.33,199.04,515.39,200.65,515.39,200.65z"/>
				<path class="st25" d="M526.48,211.94c-1.82-7.78-18.03-6.58-18.94-1.93c-0.42,2.16-0.75,6.27-0.47,8.45
					c0.42,3.26,1,5.19,4.03,7.13c1.13,0.73,2.01,1.92,1.86,3.18c-1.29,10.43,8.9,12.01,12.77,9.2c5.1-8.52,1.71-15.94,0.29-20.57
					C525.2,214.72,526.93,213.86,526.48,211.94z"/>
				<path class="st26" d="M502.27,248.59c0,0-7.09,14.52-7.09,19.41c0,4.9,1.68,8,3.6,7.59c2.9-0.62,10.83-21.21,10.83-21.21
					L502.27,248.59z"/>
				<path class="st27" d="M510.88,235.7c0,0-4.16,1.13-7.68,4.66c-3.53,3.53-4.73,14.73-4.73,14.73s-0.51,1.69,9.45,2.7
					C517.88,258.81,510.88,235.7,510.88,235.7z"/>
				<path class="st14" d="M510.88,235.7c0,0,0,0-0.01,0c-1.14,0.35-4.43,1.61-4.8,4.66c0,0-2.57,12.04-2.83,16.79
					c1.22,0.23,2.76,0.45,4.69,0.65C517.88,258.81,510.88,235.7,510.88,235.7z"/>
				<path class="st26" d="M470.54,242.29c0,0,4.39,2.89,6.39,3.17c2,0.28,5.45-1.89,6.23-1.11c0.78,0.78,10.17,32.41,15.01,31.58
					c4.84-0.83,2.55-10.45,0.61-14.68c-1.94-4.23-9.78-17.57-10.28-19.4c-0.5-1.84-0.89-2.56-3.72-3.39c-2.84-0.83-6.23-1.17-6.62,0
					c-0.39,1.17,2.67,0.61,2.67,1.22c0,0.61-2.61,1.63-3.95,0.93c-1.33-0.7-4.71-3.67-5.37-2.69c-0.67,0.98,4.23,3.64,4.06,3.82
					c-0.18,0.18-4.23-2.65-4.84-2.5c-0.61,0.15-0.58,0.96,0.22,1.46c0.8,0.5,4.2,2.2,3.97,2.43c-0.23,0.23-3.76-1.93-4.24-1.78
					C470.19,241.49,470.34,241.91,470.54,242.29z"/>
				<path class="st28" d="M514.25,271.81c0,0-3.88,11.23-4.56,19.67c-0.68,8.44-0.84,18.57-0.84,18.57h38.07
					c0,0-0.17-9.96-0.51-20.85c-0.34-10.89-10.21-18.32-10.21-18.32L514.25,271.81z"/>
				<path class="st17" d="M514.25,271.81c0,0-0.24,0.69-0.61,1.85c5.98,2.42,23.24,4.52,27.92,2.81c-2.64-3.53-5.37-5.58-5.37-5.58
					L514.25,271.81z"/>
				<g>
					<path class="st18" d="M526.41,310.42c-0.19,0-0.36-0.14-0.38-0.34l-2.08-18.84c-2.42-0.86-6.51-3.39-6.69-3.51
						c-0.18-0.11-0.23-0.35-0.12-0.52c0.11-0.18,0.34-0.23,0.52-0.12c0.04,0.03,4.46,2.77,6.75,3.51l0.23,0.08l2.14,19.32
						c0.02,0.21-0.13,0.4-0.34,0.42C526.44,310.42,526.42,310.42,526.41,310.42z"/>
				</g>
				<path class="st27" d="M506.07,240.36c0,0-1.1,7.98-1.1,12.12c0,4.14,5.51,18.76,6.92,20.17c2.98,2.98,22.33,1.81,25.24-1.1
					c2.91-2.91,3.92-30.77,0.42-34.27c-3.5-3.5-11.47-3.19-11.47-3.19l-14.82,1.5C511.26,235.59,506.52,236.66,506.07,240.36z"/>
				<path class="st29" d="M537.55,237.28c-0.95-0.95-2.24-1.62-3.6-2.09c0,0,0,0-0.01,0c-2.67-0.29-3.66,3-4.16,5.64
					c-1.34,7.09,0.54,17.61,1.44,20.68c0.52,1.79,4.64,4.21,8.56,3.3C540.74,255.4,539.93,239.66,537.55,237.28z"/>
				<path class="st26" d="M533.8,253.75c0,0,7.04,14.55,10.89,17.57c3.85,3.02,7.33,3.62,8.19,1.85c1.3-2.66-7.24-23.07-7.24-23.07
					L533.8,253.75z"/>
				<path class="st26" d="M509.24,274.8c0,0,4.99-1.67,6.44-3.07c1.46-1.4,1.88-5.45,2.97-5.58c1.09-0.13,31.77,12.03,34.11,7.71
					c2.33-4.32-6.64-8.46-11.17-9.55c-4.52-1.08-19.86-3.16-21.61-3.9c-1.75-0.74-2.56-0.88-4.97,0.83
					c-2.41,1.71-4.77,4.18-4.09,5.2c0.68,1.03,2.13-1.72,2.61-1.34c0.48,0.38-0.33,3.06-1.71,3.68c-1.38,0.62-5.79,1.44-5.43,2.57
					c0.36,1.13,5.48-1.08,5.51-0.83c0.03,0.25-4.69,1.69-4.96,2.26c-0.26,0.57,0.4,1.05,1.29,0.73c0.89-0.32,4.32-1.94,4.36-1.62
					c0.04,0.33-3.84,1.77-4.02,2.24C508.39,274.58,508.82,274.73,509.24,274.8z"/>
				<path class="st27" d="M533.95,235.19c-2.67-0.29-4.44,2.97-4.16,5.64c0.53,5.09,2.99,12.92,3.88,15.99
					c1.35,4.64,16.8-2.4,15.45-6.37C547.77,246.48,538.73,235.7,533.95,235.19z"/>
				<path class="st26" d="M514.04,224.37c0,0,0.46,7.39,0,9.07c-0.46,1.69-2.79,2.15-2.79,2.15s-2.32,7.55,4.56,9.92
					c6.88,2.36,10.26-11.42,10.26-11.42s-1.89,0.1-2.29-0.02c-1.72-0.5-1.44-11.73-1.44-11.73L514.04,224.37z"/>
				<path class="st30" d="M520.06,226.83c0.86-0.49,2.32-2.96,2.31-3.48c-0.01-0.63-0.01-1.01-0.01-1.01l-8.31,2.03
					c0,0,0.1,1.56,0.16,3.4C516,228.24,518.02,228,520.06,226.83z"/>
				<path class="st26" d="M509.61,204.7c0,0-1.84,1.33-1.84,2.98c0,1.65-1.01,10.26,1.2,13.93c2.22,3.67,6.58,5.44,11.08,3.1
					c4.5-2.34,7.03-4.62,5.19-12.47C523.41,204.38,515.69,201.47,509.61,204.7z"/>
				<path class="st7" d="M525.79,216.61c0.04,4.46-2.27,6.25-5.79,8.09c-4.5,2.34-8.86,0.57-11.08-3.1
					c-0.76-1.25-1.14-3.07-1.31-4.99H525.79z"/>
				<path class="st30" d="M507.78,207.67c0,0.55-0.11,1.89-0.18,3.57c0.95-0.13,11.06-1.52,12.64-2.23c0.3,2.16,2.37,7.23,6.74,8.56
					c0.55-1.73-0.98-2.12-1.73-5.34c-1.84-7.85-9.56-10.76-15.64-7.53C509.61,204.7,507.78,206.03,507.78,207.67z"/>
				<path class="st24" d="M527.72,204.11c-1.63-1.88-3.74-2.84-5.75-3.3l0,0c-5.27-1.51-9.68-0.9-13.19,2.6
					c-1.25,1.25-2.78,3.57-1.84,6.61h0.6c0.04-0.01,11.36-1.33,13.06-1.99c0.4,2.5,5.95,10.06,6.35,10.73l2.08-12.73
					C528.69,205.38,528.27,204.74,527.72,204.11z"/>
				<path class="st26" d="M523.9,216.23c0,0,0.05-3.57,1.96-2.41c1.91,1.16,1.39,5.83-0.76,5.33
					C522.95,218.64,523.9,216.23,523.9,216.23z"/>
			</g>
		</g>
	</g>
	<g>
		<path class="st2" d="M568.31,543.61h-97.35c-4.01,0-7.26-3.25-7.26-7.26l0,0h111.87l0,0
			C575.57,540.36,572.32,543.61,568.31,543.61z"/>
		<rect x="460.32" y="366.06" class="st20" width="119.06" height="164.67"/>
		<rect x="465.54" y="369.01" class="st6" width="108.63" height="161.71"/>
		<rect x="469.03" y="372.26" class="st21" width="102.73" height="158.46"/>
		<g>
			<path class="st15" d="M512.94,473.22l0.76-18.03c0.01-0.19,0.16-0.33,0.35-0.32c0.18,0.01,0.31,0.15,0.32,0.32l0.76,18.03
				c0.03,0.6-0.44,1.11-1.05,1.14c-0.6,0.02-1.11-0.44-1.14-1.05C512.94,473.28,512.94,473.25,512.94,473.22z"/>
			<path class="st31" d="M507.11,472.62c0,0-1.72,28.4,5.83,31.05c7.55,2.65,24.76-19.07,24.76-19.07l3.16-14.52
				c0,0-22.36,24.99-24.35,20.48c-1.99-4.5-3.58-24.03-3.58-24.03l0.36-6.69C513.3,459.85,507.17,463.03,507.11,472.62z"/>
			<polygon class="st11" points="544.49,455.51 545.88,471.04 555.25,468.74 552.34,451.34 			"/>
			<path class="st12" d="M553.01,455.35l-0.67-4.01l-7.85,4.17l0.62,6.85C548.22,461.17,551.28,457.64,553.01,455.35z"/>
			<path class="st11" d="M541.97,440.85c0,0-6.3,16.01-0.58,18.07c5.72,2.07,13.09-7.75,13.09-7.75S547.25,435.22,541.97,440.85z"/>
			<path class="st7" d="M554.47,451.22c0,0-7.37,9.81-13.09,7.75c-2.57-0.93-2.71-4.66-2.09-8.48h14.83
				C554.35,450.95,554.47,451.22,554.47,451.22z"/>
			<path class="st10" d="M541.43,440c0,0-1.12-5.14,2.09-6.3c3.2-1.16,4.12-0.53,4.12-0.53s2.04-8.15,8.73-2.38
				c0,0,5.09-0.87,6.4,1.99c1.31,2.86-2.28,4.41-2.28,4.41s6.21-0.82,6.21,4.27c0,5.09-2.91,4.41-2.91,4.41s1.26,3.78-1.89,4.99
				c-3.15,1.21-3.39,0.48-3.39,0.48s-1.16,6.12-5.34,4.92c0,0-2.66-11.81-6.88-12.68C542.06,442.71,541.43,440,541.43,440z"/>
			<path class="st15" d="M542.27,439.65c0,0,5.68-2.12,10.8,4.72c3.02,4.04,5.11,5.68,5.29,7.89c0.15,1.81-3.42,5.31-4.59,4.6
				c-2.49-1.51-2.59-8.75-5.58-10.21c-2.98-1.45-6.57-5.67-6.57-5.67L542.27,439.65z"/>
			<path class="st16" d="M558.13,453.33c0.17-0.39,0.26-0.76,0.24-1.08c-0.18-2.2-2.27-3.84-5.29-7.89
				c-2.43-3.25-4.99-4.47-7.01-4.87c-0.05-0.01-0.09-0.02-0.14-0.02C545.92,439.47,549.97,440.65,558.13,453.33z"/>
			<path class="st15" d="M540.32,437.25c0,1.71,1.3,3.1,1.3,3.1s1.3-1.39,1.3-3.1c0-1.71-1.3-3.1-1.3-3.1
				S540.32,435.54,540.32,437.25z"/>
			<path class="st15" d="M538.95,438.31c1.66,0.43,2.68,2.04,2.68,2.04s-1.67,0.91-3.33,0.48c-1.66-0.43-2.68-2.04-2.68-2.04
				S537.29,437.88,538.95,438.31z"/>
			<path class="st11" d="M533.91,528.27c0,0-5.43-31.12-4.24-38c0.9-5.22,7.29-14.83,10.31-19.17c1-1.42,2.51-2.4,4.21-2.73
				l10.65-2.03c0,0,6.61-2.55,9.25,12.28c2.65,14.83,3.71,49.66,3.71,49.66H533.91z"/>
			<path class="st14" d="M567.81,528.27c0,0-0.9-29.68-3.13-45.91c-7.08,4.82-25.16,3.95-33.49,3.34c-0.81,1.72-1.33,3.42-1.52,4.56
				c-1.19,6.89,4.24,38,4.24,38H567.81z"/>
			<path class="st32" d="M543.82,518.32c-2.97-13.26-4.32-26.03-4.87-32.2c-0.29-0.01-0.63-0.02-0.92-0.03
				c0.54,6.16,1.96,19.04,4.95,32.41c0.77,3.44,1.59,6.7,2.46,9.78h0.91C545.37,524.88,544.53,521.52,543.82,518.32z"/>
			<path class="st15" d="M519.6,446.05c0,5.96-2.49,10.79-5.56,10.79c-3.07,0-5.56-4.83-5.56-10.79s2.49-10.79,5.56-10.79
				C517.11,435.26,519.6,440.09,519.6,446.05z"/>
			<path class="st33" d="M514.03,455.85c-2.16,0-4.57-4.02-4.57-9.8c0-5.78,2.41-9.8,4.57-9.8c2.16,0,4.57,4.02,4.57,9.8
				C518.6,451.83,516.2,455.85,514.03,455.85z"/>
			<path class="st31" d="M512.17,460.76c0,0-0.32,2.39-0.71,3.72c-0.4,1.33-0.41,3.3,0.58,3.72c0.99,0.42,3.62-0.77,4.02-2.82
				C516.46,463.32,514.72,457.48,512.17,460.76z"/>
			<path class="st11" d="M513.4,439.93c-0.76-0.76-1.56-1.1-2.37-1.13c-0.92,1.74-1.57,4.26-1.57,7.26c0,5.77,2.41,9.8,4.57,9.8
				c0.65,0,1.33-0.37,1.95-1.04C517.69,450.14,513.4,439.93,513.4,439.93z"/>
			<path class="st34" d="M515.99,454.82c-0.62,0.67-1.29,1.04-1.95,1.04c-1.49,0-3.09-1.91-3.95-5h6.25
				C516.45,452.35,516.38,453.73,515.99,454.82z"/>
			<path class="st16" d="M509.55,444.22c2.23-1.79,4.19-4.1,4.19-4.1l-0.64-1.32c0,0-0.72-0.27-1.89-0.31
				C510.4,439.88,509.77,441.86,509.55,444.22z"/>
			<g>
				<path class="st16" d="M540.57,439.18c-0.44,0.41-0.71,1.07-0.87,1.75c1.09-0.11,1.93-0.57,1.93-0.57
					S541.24,439.75,540.57,439.18z"/>
				<path class="st16" d="M542.51,439.01c-0.74-0.36-1.31-0.29-1.75,0.02c0.38,0.8,0.87,1.33,0.87,1.33S542.13,439.82,542.51,439.01
					z"/>
			</g>
			<path class="st16" d="M543.85,439.35c-0.98,0.07-1.58,0.29-1.58,0.29l-0.64,1.32c0,0,0.47,0.55,1.21,1.33
				c0.7-0.43,1.17-1.2,1.17-2.08C544.01,439.92,543.95,439.62,543.85,439.35z"/>
			<path class="st15" d="M542.71,440.22c0,0.63-0.51,1.14-1.14,1.14c-0.63,0-1.14-0.51-1.14-1.14c0-0.63,0.51-1.14,1.14-1.14
				C542.2,439.08,542.71,439.59,542.71,440.22z"/>
			<path class="st14" d="M567.17,513.09c-9.1-6-18.91-12.75-20.44-14.9c-1.98-2.78-2.61-12.34-2.95-15.77
				c-0.32,0-0.98,2.9-1.18,3.76c-0.73,3.58-1.36,10.17,1.41,16.61c2.34,5.42,5.75,16.67,8.28,25.48h15.52
				C567.81,528.27,567.61,521.72,567.17,513.09z"/>
			<path class="st35" d="M553.7,466.3c0,0-5.35,3.84-2.57,10.59c2.78,6.75,13.97,25.76,12.71,27.01
				c-1.26,1.26-13.43-7.81-14.07-10.86c0,0,0.29-7.89-0.63-7.89c-0.93,0-0.93,2.32-1.72,3.12c-0.79,0.79-0.27-5.3,0.53-7.15
				c0.8-1.85-4.82-1.34-4.82,4.03c0,5.37-2.46,10.53,12.76,23.91c15.23,13.37,17.78,10.12,18.54,7.02
				C575.35,512.38,570.18,461.53,553.7,466.3z"/>
		</g>
		<rect x="476.79" y="372.26" class="st23" width="10.63" height="159.21"/>
		<rect x="482.1" y="372.26" class="st36" width="5.32" height="159.21"/>
		<rect x="490.44" y="372.26" class="st23" width="10.63" height="159.21"/>
		<rect x="495.75" y="372.26" class="st36" width="5.32" height="159.21"/>
		<path class="st5" d="M469.03,372.26v158.46h11.96c-1.62-40.65-2.63-110.26,8.15-130.23c10.24-18.96,49.45-25.78,74.95-28.24
			H469.03z"/>
		<rect x="469.03" y="409.02" class="st6" width="102.73" height="4.62"/>
		<rect x="469.03" y="413.64" class="st37" width="102.73" height="1.43"/>
		<rect x="516.48" y="372.26" class="st6" width="5.17" height="36.76"/>
		<rect x="517.73" y="367.21" class="st7" width="2.66" height="41.81"/>
		<path class="st8" d="M582.52,536.35H456.97c-2.35,0-4.25-1.9-4.25-4.25v-1.27c0-2.35,1.9-4.25,4.25-4.25h125.56
			c2.35,0,4.25,1.9,4.25,4.25v1.26C586.77,534.45,584.87,536.35,582.52,536.35z"/>
		<path class="st6" d="M583.07,526.59H456.42c-2.05,0-3.71,1.66-3.71,3.71v2.35c0,0.31,0.04,0.61,0.11,0.89
			c0.4-1.62,1.86-2.81,3.6-2.81h126.64c1.74,0,3.2,1.2,3.6,2.81c0.07-0.29,0.11-0.58,0.11-0.89v-2.35
			C586.77,528.25,585.11,526.59,583.07,526.59z"/>
		<path class="st2" d="M568.31,543.61h-97.35c-4.01,0-7.26-3.25-7.26-7.26l0,0h111.87l0,0
			C575.57,540.36,572.32,543.61,568.31,543.61z"/>
		<path class="st9" d="M531.61,538.01c15.9,0,30.78,0.33,43.49,0.92c0.3-0.8,0.47-1.67,0.47-2.58l0,0H463.7l0,0
			c0,1.54,0.48,2.96,1.29,4.13C480.5,538.98,504.58,538.01,531.61,538.01z"/>
		<rect x="469.03" y="406.96" class="st7" width="102.73" height="2.06"/>
		<path class="st10" d="M563.63,451.3c-1.64,1.64-4.74,1.7-6.86-0.42c-2.12-2.12-2.45-5.63-0.81-7.26c1.64-1.64,4.68-1.24,6.8,0.88
			C564.87,446.62,565.26,449.67,563.63,451.3z"/>
		<path class="st10" d="M559.75,445.94c-1.64,1.64-4.68,1.24-6.8-0.88c-2.12-2.12-2.51-5.16-0.88-6.8c1.64-1.64,4.68-1.24,6.8,0.88
			C560.99,441.26,561.38,444.31,559.75,445.94z"/>
	</g>
	<g>
		<path class="st2" d="M362.46,544.02H265.1c-4.01,0-7.26-3.25-7.26-7.26l0,0h111.87l0,0C369.71,540.77,366.46,544.02,362.46,544.02
			z"/>
		<rect x="254.46" y="358.66" class="st20" width="119.06" height="172.47"/>
		<path class="st7" d="M371.64,358.66"/>
		<line class="st7" x1="373.53" y1="531.13" x2="371.64" y2="531.13"/>
		<rect x="259.68" y="369.42" class="st6" width="108.63" height="161.71"/>
		<rect x="263.17" y="372.67" class="st21" width="102.73" height="158.46"/>
		<path class="st2" d="M362.46,544.02H265.1c-4.01,0-7.26-3.25-7.26-7.26l0,0h111.87l0,0C369.71,540.77,366.46,544.02,362.46,544.02
			z"/>
		<path class="st9" d="M325.75,538.42c15.9,0,30.78,0.33,43.49,0.92c0.3-0.8,0.47-1.67,0.47-2.58l0,0H257.84l0,0
			c0,1.54,0.48,2.96,1.29,4.13C274.64,539.39,298.72,538.42,325.75,538.42z"/>
		<g>
			<path class="st38" d="M351.41,457.92v-25.03c0-0.24-0.19-0.44-0.43-0.44c-0.24,0-0.43,0.2-0.43,0.44v25.03
				c-1.07,0.2-1.89,1.14-1.89,2.28c0,1.28,1.04,2.32,2.32,2.32s2.32-1.04,2.32-2.32C353.3,459.07,352.49,458.12,351.41,457.92z
				 M350.98,462.19c-1.1,0-1.99-0.89-1.99-1.99c0-1.1,0.89-1.99,1.99-1.99c1.1,0,1.99,0.89,1.99,1.99
				C352.98,461.3,352.08,462.19,350.98,462.19z"/>
			<rect x="263.17" y="372.67" class="st38" width="102.73" height="5.32"/>
			<rect x="263.17" y="377.98" class="st39" width="102.73" height="5.32"/>
			<rect x="263.17" y="386.32" class="st38" width="102.73" height="5.32"/>
			<rect x="263.17" y="391.64" class="st39" width="102.73" height="5.32"/>
			<rect x="263.17" y="400.33" class="st38" width="102.73" height="5.32"/>
			<polygon class="st39" points="365.9,409.13 365.9,405.64 263.17,405.64 263.17,410.96 329.55,410.96 			"/>
			<polygon class="st38" points="365.9,409.13 329.55,410.96 263.17,414.3 263.17,419.62 365.9,414.45 			"/>
			<polygon class="st39" points="365.9,414.45 263.17,419.62 263.17,424.95 365.9,419.78 			"/>
			<polygon class="st38" points="365.9,422.8 263.17,427.97 263.17,433.29 365.9,428.12 			"/>
			<polygon class="st39" points="365.9,428.12 263.17,433.29 263.17,438.62 365.9,433.44 			"/>
		</g>
		<path class="st40" d="M263.17,372.67v158.46h11.96c-1.62-40.65-2.63-110.26,8.15-130.23c10.24-18.96,49.45-25.78,74.95-28.24
			H263.17z"/>
		<rect x="261.78" y="409.43" class="st6" width="104.76" height="4.62"/>
		<rect x="310.62" y="372.67" class="st6" width="5.17" height="36.76"/>
		<rect x="311.87" y="372.67" class="st7" width="2.66" height="36.76"/>
		<rect x="263.17" y="407.37" class="st7" width="102.73" height="2.06"/>
		<g>
			<polygon class="st41" points="336.18,481.96 351.79,502.56 333.4,509.27 			"/>
			<path class="st42" d="M321.47,470.99c0,0,10.52,6.76,14.47,10.71c3.95,3.95,7.52,28.65,7.52,28.65l-3.19,16.82h-39.64
				c0,0-8.74-48.19-5.07-51.86c2.37-2.37,7.89-4.11,11.49-5.05c2.07-0.54,4.22-0.66,6.34-0.37L321.47,470.99z"/>
			<path class="st43" d="M306.14,481.96c2.72,11.19-0.73,24.81,0.47,26.01c1.2,1.2,27.63-0.16,27.63-0.16s-23.54,13.53-26.68,19.36
				h-6.95c0,0-8.74-48.19-5.07-51.86c1.11-1.11,2.92-2.09,4.89-2.9c0,0,0,0,0,0S303.43,470.77,306.14,481.96z"/>
			<path class="st44" d="M362.39,498.73l-13.27,25.08c-0.31,0.59-0.93,0.94-1.59,0.9l-15.77-0.93c-1.13-0.07-1.88-1.22-1.5-2.29
				l8.13-22.89c0.23-0.65,0.82-1.09,1.49-1.13l20.91-1.25C362.12,496.13,363.02,497.55,362.39,498.73z"/>
			<path class="st45" d="M329.02,521.36l8.23-22.68c0.23-0.64,0.83-1.08,1.51-1.12l0.82-0.05c-0.47,0.17-0.86,0.54-1.04,1.03
				l-8.23,22.89c-0.35,0.98,0.25,2.03,1.22,2.25l-1-0.06C329.39,523.57,328.63,522.43,329.02,521.36z"/>
			<path class="st27" d="M299.3,505.81l1.25,4.5c0,0,26.68-6.88,29.81-8.39c2.53-1.22,12.6-3.91,16.35-3.65
				c0.61,0.04,0.69,0.9,0.09,1.05c-2.36,0.57-7.05,1.76-7.05,2.23c0,0.63,4.73,1.55,4.38,2.32c-0.69,1.55-3.01,2.44-3.44,3.88
				c-0.44,1.44-5.23,0.31-6.88,0.31c-1.64,0-32.08,18.48-41.29,14.09c-9.21-4.38-3.63-23.83-3.63-23.83L299.3,505.81z"/>
			<path class="st27" d="M349.33,515.46c0.61-0.61,0.58-2.11,1.28-2.82c0.7-0.7,1.47,0.72,1.66-0.88c0.19-1.6-0.94-4.07,0.16-3.95
				c1.1,0.13,2.6,4.63,2.6,4.63c0.79,1.84-2.76,8.71-4.63,8.24c-1.88-0.47-2.6-2.69-2.6-3.73
				C347.8,515.93,348.72,516.07,349.33,515.46z"/>
			<path class="st7" d="M327.58,475.11c0.43,1.73,0.86,4.65,0.52,6.49c-0.47,2.54-1.46,3.33-2.87,2.77
				c-1.41-0.56-4.06-4.32-4.66-4.11c-0.6,0.21-4.69,5.33-6.66,4.53c-1.33-0.54-5.3-9.25-7.3-14.42c0.14-0.04,0.29-0.08,0.42-0.11
				c2.07-0.54,4.22-0.66,6.34-0.37l8.1,1.1C321.49,471,324.48,472.93,327.58,475.11z"/>
			<path class="st27" d="M327.58,466.29l-1.79,8.92c0,0-1.69,5.07-4.98,5.07c-3.29,0-8.63-10.56-8.63-10.56l7.69-10.11
				L327.58,466.29z"/>
			<path class="st27" d="M327.58,466.29l-1.79,8.92c0,0-1.69,5.07-4.98,5.07c-3.29,0-8.63-10.56-8.63-10.56l5.91-7.86l1.22-2.6
				L327.58,466.29z"/>
			<path class="st46" d="M318.01,462.09l1.31-2.81l8.26,7.02l-0.96,4.81C322.48,470.32,318.69,466.89,318.01,462.09z"/>
			<path class="st27" d="M335.58,446.36c0,0,1.5,20.34-4.42,22.17c-5.92,1.83-13.34-2.54-13.34-9.39
				C317.82,452.28,320.45,438.52,335.58,446.36z"/>
			<path class="st7" d="M317.99,459.11c0,6.86,7.42,11.23,13.34,9.39c2.81-0.87,3.95-5.92,4.37-10.98h-16.01v-3.37h-1.26
				C318.1,455.93,317.99,457.67,317.99,459.11z"/>
			<path class="st47" d="M330.21,441.73c0,0,11.18-2.3,11.56,0.94c0.38,3.24-3.42,5.31-5.94,5.31c-2.52,0-8.88-0.87-11.02,1.27
				c-2.14,2.14-6.66,12.66-6.66,12.66l-2.02,2.59c-0.02,0.03-0.28-0.38-0.31-0.82c-0.06-0.76-0.27-4.99-2.61-8.37
				c-2.54-3.66-0.45-9.43,2.6-13.23C318.86,438.27,327.72,441.73,330.21,441.73z"/>
			<path class="st27" d="M322.12,454.61c0,0-0.8-2.9-2.37-2.63c-3.57,0.61-1.53,7.04-0.4,7.31
				C321.65,459.83,322.75,458.07,322.12,454.61z"/>
			<path class="st48" d="M305.44,483.96c0.1,5.58-2.41,20.24-3.24,24.93c-0.15,0.85-0.9,1.45-1.76,1.43
				c-3.64-0.11-12.76-0.47-13.66-1.37c-1.13-1.13,2.49-30.88,8.68-35.05C302.86,468.92,305.32,477.51,305.44,483.96z"/>
			<g>
				<path class="st44" d="M319.43,496.85c0.4,0,1.03-0.08,1.55-0.52c0.61-0.5,0.92-1.33,0.92-2.46c0-3.2-0.57-11.84-0.57-11.92
					c-0.01-0.12-0.11-0.2-0.23-0.2c-0.12,0.01-0.21,0.11-0.2,0.23c0.01,0.09,0.57,8.71,0.57,11.89c0,0.99-0.25,1.7-0.76,2.12
					c-0.68,0.56-1.61,0.4-1.62,0.4c-0.12-0.02-0.23,0.06-0.25,0.17c-0.02,0.12,0.05,0.23,0.17,0.25
					C319.03,496.82,319.19,496.85,319.43,496.85z"/>
			</g>
			<path class="st44" d="M318.9,483.81c0,0.27,0.22,0.49,0.49,0.49c0.27,0,0.49-0.22,0.49-0.49c0-0.27-0.22-0.49-0.49-0.49
				C319.12,483.31,318.9,483.53,318.9,483.81z"/>
			<path class="st44" d="M318.9,488.69c0,0.27,0.22,0.49,0.49,0.49c0.27,0,0.49-0.22,0.49-0.49c0-0.27-0.22-0.49-0.49-0.49
				C319.12,488.2,318.9,488.42,318.9,488.69z"/>
			<path class="st44" d="M318.9,493.65c0,0.27,0.22,0.49,0.49,0.49c0.27,0,0.49-0.22,0.49-0.49c0-0.27-0.22-0.49-0.49-0.49
				C319.12,493.16,318.9,493.38,318.9,493.65z"/>
		</g>
		<path class="st49" d="M269.41,509.27V527h12.46v-2.91c2.54-0.55,4.46-3.06,4.46-6.06c0-3-1.92-5.51-4.46-6.06v-2.7H269.41z
			 M281.88,522.3v-8.55C285.51,514.98,285.51,521.07,281.88,522.3z"/>
		<path class="st50" d="M356.01,509.35c0,0.83-2.79,1.51-6.23,1.51c-3.44,0-6.23-0.68-6.23-1.51c0-0.83,2.79-1.51,6.23-1.51
			C353.22,507.84,356.01,508.52,356.01,509.35z"/>
		<path class="st7" d="M355.71,509.21c0,0.68-2.66,1.24-5.93,1.24s-5.93-0.55-5.93-1.24c0-0.68,2.66-1.24,5.93-1.24
			S355.71,508.53,355.71,509.21z"/>
		<path class="st51" d="M344.29,509.69c0.89,0.45,3.01,0.77,5.49,0.77c2.48,0,4.6-0.32,5.49-0.77c-0.89-0.45-3.01-0.77-5.49-0.77
			C347.3,508.92,345.18,509.23,344.29,509.69z"/>
		<path class="st52" d="M274.09,499.96c0.08,0.24-0.23,0.41-0.39,0.21c-1.33-1.61-3.99-5.27-3.99-8.79c0-4.69,6.41-6.1,4.73-10.19
			c-1.69-4.1,7.37-1.34,3.43,3.69c-3.93,5.04-7.57,4.61-5.75,9.56C273.15,497.25,273.76,498.98,274.09,499.96z"/>
		<path class="st52" d="M347.93,498.33c0,0-2.8,0.97-2.05,4.09c0.4,1.64,1.3,2.6,2.07,3.14c0.28,0.19,0.61-0.15,0.41-0.42
			c-0.89-1.27-1.88-3.36,0.25-4.52C351.79,498.9,349.76,497.58,347.93,498.33z"/>
		<path class="st8" d="M376.66,536.76H251.11c-2.35,0-4.25-1.9-4.25-4.25v-1.26c0-2.35,1.9-4.25,4.25-4.25h125.56
			c2.35,0,4.25,1.9,4.25,4.25v1.26C380.91,534.86,379.01,536.76,376.66,536.76z"/>
		<path class="st6" d="M377.21,527H250.56c-2.05,0-3.71,1.66-3.71,3.71v2.35c0,0.31,0.04,0.61,0.11,0.89
			c0.4-1.62,1.86-2.81,3.6-2.81h126.64c1.74,0,3.2,1.2,3.6,2.81c0.07-0.29,0.11-0.58,0.11-0.89v-2.35
			C380.91,528.66,379.25,527,377.21,527z"/>
	</g>
</g>
</svg>
