<?xml version="1.0" encoding="utf-8"?>
<!-- Generator: Adobe Illustrator 23.0.2, SVG Export Plug-In . SVG Version: 6.00 Build 0)  -->
<svg version="1.1" id="Camada_1" xmlns="http://www.w3.org/2000/svg" xmlns:xlink="http://www.w3.org/1999/xlink" x="0px" y="0px"
	 viewBox="0 0 73.53 21.19" style="enable-background:new 0 0 73.53 21.19;" xml:space="preserve">
<style type="text/css">
	.st0{fill:#26315F;stroke:#25305F;stroke-miterlimit:10;}
	.st1{fill:none;stroke:#25305F;stroke-width:0.25;stroke-miterlimit:10;}
	.st2{enable-background:new    ;}
</style>
<g>
	<g>
		<path class="st0" d="M24.9,8.47c-0.03-2.2-1.84-3.97-4.04-3.94c-2.2,0.03-3.97,1.84-3.94,4.04c0.01,0.7,0.2,1.36,0.53,1.93h0
			l0.01,0.01c0.08,0.15,0.18,0.29,0.28,0.42l3.28,4.93l3.14-5.02c0.1-0.14,0.19-0.28,0.27-0.43l0.01-0.01l0,0
			C24.73,9.83,24.91,9.17,24.9,8.47z M20.95,11.39c-1.63,0.02-2.97-1.28-2.99-2.91c-0.02-1.63,1.28-2.97,2.91-2.99
			c1.63-0.02,2.97,1.28,2.99,2.91C23.88,10.03,22.58,11.37,20.95,11.39z"/>
	</g>
	<g>
		<rect x="19.59" y="8.03" class="st1" width="2.63" height="1.82"/>
		<g>
			<rect x="20.9" y="8.74" class="st1" width="1.1" height="1.11"/>
			<line class="st1" x1="21.45" y1="8.74" x2="21.45" y2="9.85"/>
			<path class="st1" d="M21.63,9.27c0,0.03-0.02,0.05-0.05,0.05c-0.03,0-0.05-0.02-0.05-0.05c0-0.03,0.02-0.05,0.05-0.05
				C21.61,9.22,21.63,9.24,21.63,9.27z"/>
			<path class="st1" d="M21.38,9.27c0,0.03-0.02,0.05-0.05,0.05s-0.05-0.02-0.05-0.05c0-0.03,0.02-0.05,0.05-0.05
				C21.35,9.22,21.38,9.24,21.38,9.27z"/>
		</g>
		<g>
			<rect x="19.75" y="8.7" class="st1" width="0.96" height="0.8"/>
			<line class="st1" x1="20.72" y1="9.09" x2="19.75" y2="9.09"/>
			<line class="st1" x1="20.24" y1="8.7" x2="20.24" y2="9.49"/>
		</g>
		<polygon class="st1" points="19.29,8.03 22.53,8.03 20.91,6.62 		"/>
	</g>
</g>
<g class="st2">
	<path d="M26.73,13.1V7.07h1.94v4.43h2.63v1.6H26.73z"/>
	<path d="M32.05,10.09c0-0.98,0.28-1.76,0.84-2.32c0.56-0.57,1.33-0.85,2.29-0.85c0.97,0,1.73,0.28,2.29,0.85
		c0.56,0.57,0.84,1.34,0.84,2.32c0,0.98-0.28,1.75-0.84,2.32c-0.56,0.57-1.32,0.85-2.29,0.85c-0.97,0-1.73-0.28-2.29-0.85
		C32.33,11.84,32.05,11.07,32.05,10.09z M34,10.09c0,0.57,0.1,0.99,0.29,1.26c0.19,0.27,0.49,0.4,0.9,0.4c0.4,0,0.7-0.13,0.89-0.4
		c0.19-0.27,0.28-0.69,0.28-1.26c0-0.58-0.09-1-0.28-1.26c-0.19-0.27-0.48-0.4-0.89-0.4c-0.41,0-0.71,0.13-0.9,0.4
		C34.1,9.1,34,9.52,34,10.09z"/>
	<path d="M43.63,10.76h1.83c-0.05,0.79-0.33,1.41-0.84,1.85c-0.5,0.44-1.19,0.66-2.05,0.66c-0.97,0-1.73-0.28-2.28-0.85
		c-0.55-0.57-0.83-1.34-0.83-2.33c0-0.98,0.27-1.76,0.82-2.32c0.55-0.57,1.3-0.85,2.24-0.85c0.87,0,1.56,0.21,2.06,0.63
		c0.5,0.42,0.78,1.02,0.84,1.81h-1.85c-0.03-0.31-0.13-0.54-0.3-0.7c-0.17-0.16-0.41-0.24-0.72-0.24c-0.38,0-0.66,0.14-0.85,0.42
		c-0.19,0.28-0.28,0.7-0.28,1.25c0,0.55,0.1,0.96,0.3,1.24c0.2,0.28,0.5,0.42,0.89,0.42c0.3,0,0.54-0.09,0.71-0.26
		C43.49,11.33,43.6,11.08,43.63,10.76z"/>
	<path d="M46.19,13.1l2.29-6.03h0.66l2.29,6.03h-0.58l-0.68-1.85h-2.7l-0.7,1.85H46.19z M47.64,10.76h2.34l-1.17-3.1L47.64,10.76z"
		/>
	<path d="M52.58,13.1V7.07h0.57v5.53h3.08v0.5H52.58z"/>
	<path d="M57.46,13.1V7.07h0.57v5.53h3.08v0.5H57.46z"/>
</g>
</svg>
